<svg xmlns="http://www.w3.org/2000/svg" viewBox="0 0 362.57 313.09"><g id="Draw_Layer" data-name="Draw Layer"><path d="M155.61 321l-7.61 4.23a13.06 13.06 0 00-4.27-3.13 12.71 12.71 0 00-4.94-.88 11.52 11.52 0 00-8.35 3.08 10.47 10.47 0 00-3.19 7.89 10.14 10.14 0 003.07 7.63 11.11 11.11 0 008.06 3q6.18 0 9.62-4.21l7.25 5q-5.9 7.66-16.64 7.67-9.67 0-15.15-5.73a19 19 0 014.54-30.32 22.13 22.13 0 0110.66-2.56 21.56 21.56 0 019.8 2.17 18.61 18.61 0 017.15 6.16zm22.39-8.33a19.39 19.39 0 019.75 2.59 19 19 0 019.69 16.64 19.22 19.22 0 01-2.58 9.7 18.59 18.59 0 01-7 7.06 19.4 19.4 0 01-9.81 2.55 18.3 18.3 0 01-13.46-5.61 19.44 19.44 0 01.73-28 18.41 18.41 0 0112.68-4.93zm.15 8.65a9.48 9.48 0 00-7.14 3 10.58 10.58 0 00-2.85 7.63 10.75 10.75 0 002.82 7.74 9.42 9.42 0 007.14 3 9.55 9.55 0 007.19-3 11.85 11.85 0 00.05-15.38 9.56 9.56 0 00-7.2-2.99zm25.4-21.86h9.2v50.8h-9.2zm34.35 13.21a19.39 19.39 0 019.75 2.59 19 19 0 019.69 16.64 19.22 19.22 0 01-2.58 9.7 18.55 18.55 0 01-7 7.06 19.34 19.34 0 01-9.8 2.55 18.3 18.3 0 01-13.46-5.61 19.44 19.44 0 01.73-28 18.4 18.4 0 0112.67-4.93zm.15 8.65a9.47 9.47 0 00-7.14 3 10.58 10.58 0 00-2.85 7.63 10.75 10.75 0 002.82 7.74 9.4 9.4 0 007.13 3 9.53 9.53 0 007.19-3 11.82 11.82 0 00.05-15.38 9.55 9.55 0 00-7.2-2.99zm24.75-7.71h7.89v4.61a9.81 9.81 0 013.4-4.14 8.21 8.21 0 014.65-1.41 8.61 8.61 0 013.74.94l-2.87 7.92a6.3 6.3 0 00-2.66-.81q-2.11 0-3.59 2.62c-1 1.76-1.46 5.19-1.46 10.31v16.61h-9.1zm49.1-14.15h9.19v50.8h-9.19v-3.87a18.07 18.07 0 01-5.4 3.69 15.21 15.21 0 01-5.88 1.13 16.33 16.33 0 01-12.28-5.51 19.24 19.24 0 01-5.18-13.7q0-8.49 5-13.91a16 16 0 0112.19-5.42 15.52 15.52 0 016.19 1.24 16.93 16.93 0 015.35 3.74zm-9.67 21.7a9.3 9.3 0 00-7.09 3 10.87 10.87 0 00-2.82 7.73 11 11 0 002.87 7.82 9.32 9.32 0 007.07 3.06 9.47 9.47 0 007.19-3 11 11 0 002.85-7.9 10.72 10.72 0 00-2.85-7.75 9.58 9.58 0 00-7.22-2.96zm26.36-7.55h7.88v4.61a9.88 9.88 0 013.4-4.14 8.25 8.25 0 014.65-1.41 8.57 8.57 0 013.74.94l-2.86 7.92a6.34 6.34 0 00-2.66-.81c-1.42 0-2.61.87-3.59 2.62s-1.47 5.19-1.47 10.31v16.61h-9.13zm39.1-.94a19.42 19.42 0 019.75 2.59 18.73 18.73 0 017.12 7 18.92 18.92 0 012.57 9.6 19.22 19.22 0 01-2.58 9.7 18.55 18.55 0 01-7 7.06 19.34 19.34 0 01-9.8 2.55 18.3 18.3 0 01-13.46-5.61 19.44 19.44 0 01.73-28 18.4 18.4 0 0112.67-4.89zm.15 8.65a9.47 9.47 0 00-7.14 3 10.58 10.58 0 00-2.85 7.63 10.75 10.75 0 002.82 7.74 9.42 9.42 0 007.14 3 9.52 9.52 0 007.18-3 11.82 11.82 0 00.05-15.38 9.55 9.55 0 00-7.2-2.99zm34.87-7.71v4a17.31 17.31 0 015.39-3.74 15.53 15.53 0 016.2-1.24 16 16 0 0112.2 5.42q5 5.43 5 13.91a19.2 19.2 0 01-5.19 13.7 16.36 16.36 0 01-12.3 5.51 15.3 15.3 0 01-5.89-1.13 17.93 17.93 0 01-5.43-3.69v17.28h-9.13v-50.02zm9.67 7.55a9.58 9.58 0 00-7.21 3 10.69 10.69 0 00-2.86 7.75 11 11 0 002.86 7.9 9.52 9.52 0 007.21 3 9.35 9.35 0 007.09-3.06 11 11 0 002.88-7.82 10.83 10.83 0 00-2.83-7.73 9.35 9.35 0 00-7.14-3.04zm47.72-2.43l-5.7 5.69q-3.47-3.44-6.3-3.43a4 4 0 00-2.42.65 2 2 0 00-.88 1.64 2 2 0 00.56 1.36 10 10 0 002.74 1.7l3.37 1.69q5.32 2.63 7.31 5.35a11.16 11.16 0 01-1.6 14.56q-3.58 3.27-9.62 3.27a15.29 15.29 0 01-12.8-6.27l5.66-6.17a13 13 0 003.79 3.05 8.37 8.37 0 003.86 1.17 4.63 4.63 0 002.93-.88 2.54 2.54 0 001.11-2c0-1.42-1.33-2.8-4-4.15L445 334.4q-8.88-4.48-8.89-11.22a9.74 9.74 0 013.35-7.43 12.17 12.17 0 018.58-3.08 14.84 14.84 0 0112.06 6.06zm12.22 21.93a5.12 5.12 0 013.74 1.53 5.28 5.28 0 010 7.47 5.29 5.29 0 11-3.74-9z" transform="translate(-115.04 -50.58)" fill="#b5b5b5"/><path d="M294.9 244.38a109.63 109.63 0 110-168.38 108.77 108.77 0 000 168.35z" transform="translate(-115.04 -50.58)" fill="#f99ed9"/><path d="M472.53 160.2a108.76 108.76 0 01-177.63 84.18 109.62 109.62 0 000-168.38 108.76 108.76 0 01177.63 84.2z" transform="translate(-115.04 -50.58)" fill="#28eff2"/><path d="M334.3 160.2a109.37 109.37 0 01-39.4 84.18 108.77 108.77 0 010-168.38 109.36 109.36 0 0139.4 84.2z" transform="translate(-115.04 -50.58)" fill="#fff"/></g></svg>